<?xml version="1.0" encoding="UTF-8"?>
<svg width="17" height="18" data-name="Layer 1" version="1.1" viewBox="0 0 17 18" xmlns="http://www.w3.org/2000/svg" xmlns:cc="http://creativecommons.org/ns#" xmlns:dc="http://purl.org/dc/elements/1.1/" xmlns:rdf="http://www.w3.org/1999/02/22-rdf-syntax-ns#"><defs><style>.cls-1{fill-rule:evenodd;}</style></defs><title>bulb</title><path class="cls-1" d="m11.255 3.9699a5.2267 5.2267 0 0 1 1.2613 1.0386 4.7535 4.7535 0 0 1 0.84377 1.3565 5.3966 5.3966 0 0 1 0.271 0.87892 5.0743 5.0743 0 0 1 0.03515 2.0508 5.6676 5.6676 0 0 1-0.31495 1.0723l-0.01759 0.0366c-0.30176 0.73244-0.81886 1.4444-1.3184 2.1475-0.25635 0.3545-0.50978 0.70607-0.72365 1.0474a0.68703 0.68703 0 0 1-0.63868 0.31788l-4.0372 0.6006a0.68849 0.68849 0 0 1-0.75732-0.49952 5.8873 5.8873 0 0 0-0.37208-0.85256 3.6402 3.6402 0 0 0-0.43946-0.65773c-0.20948-0.23878-0.42188-0.48194-0.62843-0.76173a5.921 5.921 0 0 1-0.61085-1.0166 6.0177 6.0177 0 0 1-0.41163-1.1719 5.2501 5.2501 0 0 1-0.13916-1.2378 5.1842 5.1842 0 0 1 0.1626-1.2876 6.1071 6.1071 0 0 1 0.50099-1.2964l0.02928-0.05127a5.2076 5.2076 0 0 1 1.0445-1.2642 4.9396 4.9396 0 0 1 1.3858-0.85402l0.04103-0.01464a5.1871 5.1871 0 0 1 1.1719-0.31348 5.5343 5.5343 0 0 1 1.2847-0.02928 5.7335 5.7335 0 0 1 1.2305 0.25049 5.631 5.631 0 0 1 1.1411 0.51124zm-0.58595 12.782a2.5445 2.5445 0 0 1-0.91994 0.92141 2.4112 2.4112 0 0 1-1.0547 0.32227 2.1783 2.1783 0 0 1-1.0781-0.21241 2.212 2.212 0 0 1-0.64308-0.47901l3.7047-0.55226zm0.35304-2.0728v0.32665a3.2227 3.2227 0 0 1 0 0.47608l-0.07178 0.3501-4.4884 0.66798-0.0791-0.18018-0.17432-0.71779v-0.20801l4.8033-0.71486zm-2.6236-14.127a0.56251 0.56251 0 0 1 0.56984-0.55226h0.03955a0.56251 0.56251 0 0 1 0.5127 0.56984 0.18604 0.18604 0 0 1 0 0.02928l-0.03076 1.2027a0.30909 0.30909 0 0 1 0 0.03808 0.56251 0.56251 0 0 1-0.5669 0.51857h-0.03955a0.56251 0.56251 0 0 1-0.5171-0.56837 0.15967 0.15967 0 0 1 0-0.02785l0.02928-1.2085zm-6.2023 2.1065a0.56251 0.56251 0 0 1 0.36182-0.9756 0.56105 0.56105 0 0 1 0.4043 0.14649l0.90237 0.83937a0.57277 0.57277 0 0 1 0.17871 0.39259 0.55958 0.55958 0 0 1-0.14648 0.4043 0.56544 0.56544 0 0 1-0.39112 0.17872 0.55665 0.55665 0 0 1-0.4043-0.14649zm-1.4766 6.2008a0.56544 0.56544 0 0 1-0.57423-0.5464 0.56251 0.56251 0 0 1 0.5464-0.58595l1.232-0.04103a0.56251 0.56251 0 0 1 0.58595 0.54493v0.02899a0.56251 0.56251 0 0 1-0.5464 0.55231h-0.02196l-1.2158 0.03955zm15.528-1.7461h0.01171a0.56251 0.56251 0 0 1 0.38966 0.12598 0.55812 0.55812 0 0 1 0.20508 0.3794 0.071779 0.071779 0 0 1 0 0.01907 0.56251 0.56251 0 0 1-0.50392 0.59474l-1.2261 0.13037a0.56105 0.56105 0 0 1-0.41163-0.12452 0.56251 0.56251 0 0 1 0.29298-0.99611c0.4087-0.0454 0.82033-0.09228 1.2305-0.13184zm-2.4302-4.9029a0.56105 0.56105 0 0 1 0.77931-0.15967 0.5464 0.5464 0 0 1 0.23877 0.35742 0.56251 0.56251 0 0 1-0.08495 0.42188l-0.68556 1.0254a0.55665 0.55665 0 0 1-0.35743 0.2461 0.56837 0.56837 0 0 1-0.42188-0.08348 0.57423 0.57423 0 0 1-0.24024-0.35596 0.56251 0.56251 0 0 1 0.08495-0.42188l0.68703-1.0254zm-8.0715 9.6359a6.1803 6.1803 0 0 1-1.0591-1.5103 4.5704 4.5704 0 0 1-0.45558-1.9864 4.6436 4.6436 0 0 1 0.55812-2.1153 0.068849 0.068849 0 0 0 0.0071-0.01464 4.0284 4.0284 0 0 1 1.9629-1.7154 4.3433 4.3433 0 0 1 2.0406-0.29298 4.7008 4.7008 0 0 1 1.9497 0.62257 4.0181 4.0181 0 0 1 1.7007 1.9336 4.2262 4.2262 0 0 1 0 3.2593c-0.39405 0.95949-1.2964 1.9849-1.8882 2.9224a0.24463 0.24463 0 0 0-0.09815 0l-3.8204 0.56398a5.1271 5.1271 0 0 0-0.89797-1.667z" fill="#c83737" stroke-width=".14649"/><metadata><rdf:RDF><cc:Work rdf:about=""><dc:title>bulb</dc:title></cc:Work></rdf:RDF></metadata></svg>
